# xmcd
# Track frame offsets:
# 150
# 15525
# 30600
# 44848
# 60224
# 79160
# 93020
# 109283
# 127951
#
# Disc length: 1961 seconds
# Revision: 0
# Processed by: cddbd v1.5.1PL0 Copyright (c) Steve Scherf et al.
# Submitted via: VisiTrax 2.9.10.228 - For more info visit www.synapsa.com
#
DISCID=6707a709
DTITLE=Various Artist - Hits Monthly Nashville  PHN0103
DYEAR=1900
DGENRE=karaoke
TTITLE0=Chesney, Kenny - Don't Happen Twice
TTITLE1=McGraw, Tim - Things Change
TTITLE2=Montgomery, John - That's What I Like About You
TTITLE3=Tippin, Aaron - People Like Us
TTITLE4=Tritt, Travis - It's A Great Day To Be Alive
TTITLE5=Trick Pony - Pour Me
TTITLE6=Sawyer Brown - Lookin' For Love
TTITLE7=Gilman, Billy - Oklahoma
TTITLE8=Judd, Cledus T. - My Cellmate Thinks I'm Sexy
EXTD=
EXTT0=
EXTT1=
EXTT2=
EXTT3=
EXTT4=
EXTT5=
EXTT6=
EXTT7=
EXTT8=
PLAYORDER=
